{
  "accessors": [
    {
      "bufferView": 2,
      "componentType": 5126,
      "count": 2766,
      "max": [
        1.111748218536377,
        3.7355690002441406,
        1.342128038406372
      ],
      "min": [
        -1.111748218536377,
        -1.8800402879714966,
        -0.852693498134613
      ],
      "type": "VEC3"
    },
    {
      "bufferView": 2,
      "byteOffset": 33192,
      "componentType": 5126,
      "count": 2766,
      "max": [
        1.0,
        1.0,
        0.9969481229782104
      ],
      "min": [
        -1.0,
        -0.9770970344543457,
        -0.998651385307312
      ],
      "type": "VEC3"
    },
    {
      "bufferView": 1,
      "componentType": 5126,
      "count": 2766,
      "max": [
        0.9660203456878662,
        0.9775635004043579
      ],
      "min": [
        0.01060656551271677,
        0.022206485271453857
      ],
      "type": "VEC2"
    },
    {
      "bufferView": 0,
      "componentType": 5125,
      "count": 2835,
      "type": "SCALAR"
    },
    {
      "bufferView": 2,
      "byteOffset": 66384,
      "componentType": 5126,
      "count": 375,
      "max": [
        0.5427625775337219,
        2.1283304691314697,
        0.8335525989532471
      ],
      "min": [
        -0.5427625775337219,
        -1.4530746936798096,
        -0.19701847434043884
      ],
      "type": "VEC3"
    },
    {
      "bufferView": 2,
      "byteOffset": 70884,
      "componentType": 5126,
      "count": 375,
      "max": [
        0.9888948202133179,
        0.2227112203836441,
        0.9648054838180542
      ],
      "min": [
        -0.9888948202133179,
        -0.5731118321418762,
        -0.18653887510299683
      ],
      "type": "VEC3"
    },
    {
      "bufferView": 1,
      "byteOffset": 22128,
      "componentType": 5126,
      "count": 375,
      "max": [
        0.6344740986824036,
        0.45547449588775635
      ],
      "min": [
        0.14961418509483337,
        0.14747798442840576
      ],
      "type": "VEC2"
    },
    {
      "bufferView": 0,
      "byteOffset": 11340,
      "componentType": 5125,
      "count": 375,
      "type": "SCALAR"
    },
    {
      "bufferView": 2,
      "byteOffset": 75384,
      "componentType": 5126,
      "count": 96,
      "max": [
        0.5008929371833801,
        -1.0867297649383545,
        0.18325582146644592
      ],
      "min": [
        -0.5008929371833801,
        -1.2140486240386963,
        0.04142344743013382
      ],
      "type": "VEC3"
    },
    {
      "bufferView": 2,
      "byteOffset": 76536,
      "componentType": 5126,
      "count": 96,
      "max": [
        0.9539726376533508,
        0.4747644364833832,
        0.7086366415023804
      ],
      "min": [
        -0.9539726376533508,
        -0.8079500198364258,
        -0.45849213004112244
      ],
      "type": "VEC3"
    },
    {
      "bufferView": 1,
      "byteOffset": 25128,
      "componentType": 5126,
      "count": 96,
      "max": [
        0.18203818798065186,
        0.3740236461162567
      ],
      "min": [
        0.1638883352279663,
        0.22381550073623657
      ],
      "type": "VEC2"
    },
    {
      "bufferView": 0,
      "byteOffset": 12840,
      "componentType": 5125,
      "count": 96,
      "type": "SCALAR"
    },
    {
      "bufferView": 2,
      "byteOffset": 77688,
      "componentType": 5126,
      "count": 72,
      "max": [
        0.4899081587791443,
        -1.053711175918579,
        0.22517791390419006
      ],
      "min": [
        -0.4899081587791443,
        -1.2589513063430786,
        0.007991231977939606
      ],
      "type": "VEC3"
    },
    {
      "bufferView": 2,
      "byteOffset": 78552,
      "componentType": 5126,
      "count": 72,
      "max": [
        0.9979321360588074,
        0.2467990517616272,
        0.5272481441497803
      ],
      "min": [
        -0.9979321360588074,
        -0.5490055084228516,
        -0.17402341961860657
      ],
      "type": "VEC3"
    },
    {
      "bufferView": 1,
      "byteOffset": 25896,
      "componentType": 5126,
      "count": 72,
      "max": [
        0.1866627037525177,
        0.37755388021469116
      ],
      "min": [
        0.15805330872535706,
        0.22028759121894836
      ],
      "type": "VEC2"
    },
    {
      "bufferView": 0,
      "byteOffset": 13224,
      "componentType": 5125,
      "count": 72,
      "type": "SCALAR"
    }
  ],
  "asset": {
    "extras": {
      "author": "RunemarkStudio (https://sketchfab.com/runemarkstudio)",
      "license": "CC-BY-4.0 (http://creativecommons.org/licenses/by/4.0/)",
      "source": "https://sketchfab.com/3d-models/koi-fish-8ffded4f28514e439ea0a26d28c1852a",
      "title": "Koi Fish"
    },
    "generator": "Sketchfab-12.68.0",
    "version": "2.0"
  },
  "bufferViews": [
    {
      "buffer": 0,
      "byteLength": 13512,
      "name": "floatBufferViews",
      "target": 34963
    },
    {
      "buffer": 0,
      "byteLength": 26472,
      "byteOffset": 13512,
      "byteStride": 8,
      "name": "floatBufferViews",
      "target": 34962
    },
    {
      "buffer": 0,
      "byteLength": 79416,
      "byteOffset": 39984,
      "byteStride": 12,
      "name": "floatBufferViews",
      "target": 34962
    }
  ],
  "buffers": [
    {
      "byteLength": 119400,
      "uri": "koi_low.bin"
    }
  ],
  "materials": [
    {
      "doubleSided": true,
      "name": "White",
      "pbrMetallicRoughness": {
        "baseColorFactor": [
          0.8,
          0.8,
          0.8,
          1.0
        ],
        "metallicFactor": 0.0,
        "roughnessFactor": 0.6
      }
    },
    {
      "doubleSided": true,
      "name": "material",
      "pbrMetallicRoughness": {
        "baseColorFactor": [
          0.800003,
          0.00321187,
          0.0186131,
          1.0
        ],
        "metallicFactor": 0.0,
        "roughnessFactor": 0.6
      }
    },
    {
      "doubleSided": true,
      "name": "Eyes",
      "pbrMetallicRoughness": {
        "baseColorFactor": [
          0.043974400000000004,
          0.043974400000000004,
          0.043974400000000004,
          1.0
        ],
        "metallicFactor": 0.0,
        "roughnessFactor": 0.6
      }
    },
    {
      "doubleSided": true,
      "name": "Silver",
      "pbrMetallicRoughness": {
        "baseColorFactor": [
          0.7761624,
          0.8,
          0.581484,
          1.0
        ],
        "metallicFactor": 0.0,
        "roughnessFactor": 0.6
      }
    }
  ],
  "meshes": [
    {
      "name": "Koi.002_White_0",
      "primitives": [
        {
          "attributes": {
            "NORMAL": 1,
            "POSITION": 0,
            "TEXCOORD_0": 2
          },
          "indices": 3,
          "material": 0,
          "mode": 4
        }
      ]
    },
    {
      "name": "Koi.002_red_0",
      "primitives": [
        {
          "attributes": {
            "NORMAL": 5,
            "POSITION": 4,
            "TEXCOORD_0": 6
          },
          "indices": 7,
          "material": 1,
          "mode": 4
        }
      ]
    },
    {
      "name": "Koi.002_Eyes_0",
      "primitives": [
        {
          "attributes": {
            "NORMAL": 9,
            "POSITION": 8,
            "TEXCOORD_0": 10
          },
          "indices": 11,
          "material": 2,
          "mode": 4
        }
      ]
    },
    {
      "name": "Koi.002_Silver_0",
      "primitives": [
        {
          "attributes": {
            "NORMAL": 13,
            "POSITION": 12,
            "TEXCOORD_0": 14
          },
          "indices": 15,
          "material": 3,
          "mode": 4
        }
      ]
    }
  ],
  "nodes": [
    {
      "children": [
        1
      ],
      "matrix": [
        1.0,
        0.0,
        0.0,
        0.0,
        0.0,
        2.220446049250313e-16,
        -1.0,
        0.0,
        0.0,
        1.0,
        2.220446049250313e-16,
        0.0,
        0.0,
        0.0,
        0.0,
        1.0
      ],
      "name": "Sketchfab_model"
    },
    {
      "children": [
        2
      ],
      "matrix": [
        1.0,
        0.0,
        0.0,
        0.0,
        0.0,
        0.0,
        1.0,
        0.0,
        0.0,
        -1.0,
        0.0,
        0.0,
        0.0,
        0.0,
        0.0,
        1.0
      ],
      "name": "321aaaadc9ce4d4ba4294ea10dbf76b3.fbx"
    },
    {
      "children": [
        3
      ],
      "name": "RootNode"
    },
    {
      "children": [
        4,
        5,
        6,
        7
      ],
      "matrix": [
        100.0,
        0.0,
        0.0,
        0.0,
        0.0,
        -1.629206793918314e-05,
        -99.99999999999868,
        0.0,
        0.0,
        99.99999999999868,
        -1.629206793918314e-05,
        0.0,
        787.827880859375,
        0.06669312715530396,
        0.0,
        1.0
      ],
      "name": "Koi.002"
    },
    {
      "mesh": 0,
      "name": "Koi.002_White_0"
    },
    {
      "mesh": 1,
      "name": "Koi.002_red_0"
    },
    {
      "mesh": 2,
      "name": "Koi.002_Eyes_0"
    },
    {
      "mesh": 3,
      "name": "Koi.002_Silver_0"
    }
  ],
  "scene": 0,
  "scenes": [
    {
      "name": "Sketchfab_Scene",
      "nodes": [
        0
      ]
    }
  ]
}
